<svg xmlns="http://www.w3.org/2000/svg" viewBox="0 0 512 512" style="height: 512px; width: 512px;"><defs><filter id="shadow-12" height="300%" width="300%" x="-100%" y="-100%"><feFlood flood-color="rgba(255, 255, 255, 1)" result="flood"></feFlood><feComposite in="flood" in2="SourceGraphic" operator="atop" result="composite"></feComposite><feGaussianBlur in="composite" stdDeviation="15" result="blur"></feGaussianBlur><feOffset dx="0" dy="0" result="offset"></feOffset><feComposite in="SourceGraphic" in2="offset" operator="over"></feComposite></filter><filter id="shadow-13" height="300%" width="300%" x="-100%" y="-100%"><feFlood flood-color="rgba(255, 255, 255, 1)" result="flood"></feFlood><feComposite in="flood" in2="SourceGraphic" operator="atop" result="composite"></feComposite><feGaussianBlur in="composite" stdDeviation="15" result="blur"></feGaussianBlur><feOffset dx="0" dy="0" result="offset"></feOffset><feComposite in="SourceGraphic" in2="offset" operator="over"></feComposite></filter><filter id="shadow-14" height="300%" width="300%" x="-100%" y="-100%"><feFlood flood-color="rgba(255, 255, 255, 1)" result="flood"></feFlood><feComposite in="flood" in2="SourceGraphic" operator="atop" result="composite"></feComposite><feGaussianBlur in="composite" stdDeviation="15" result="blur"></feGaussianBlur><feOffset dx="0" dy="0" result="offset"></feOffset><feComposite in="SourceGraphic" in2="offset" operator="over"></feComposite></filter><radialGradient id="lorc-microchip-gradient-0"><stop offset="0%" stop-color="#fc88fc" stop-opacity="1"></stop><stop offset="100%" stop-color="#59197e" stop-opacity="1"></stop></radialGradient><radialGradient id="lorc-microchip-gradient-1"><stop offset="0%" stop-color="#ffffff" stop-opacity="1"></stop><stop offset="100%" stop-color="#4a4a4a" stop-opacity="1"></stop></radialGradient><radialGradient id="lorc-microchip-gradient-2"><stop offset="0%" stop-color="#9013fe" stop-opacity="1"></stop><stop offset="100%" stop-color="#4a90e2" stop-opacity="1"></stop></radialGradient><radialGradient id="lorc-microchip-gradient-3"><stop offset="0%" stop-color="#ff001e" stop-opacity="1"></stop><stop offset="100%" stop-color="#000000" stop-opacity="1"></stop></radialGradient><radialGradient id="lorc-microchip-gradient-4"><stop offset="0%" stop-color="#9013fe" stop-opacity="1"></stop><stop offset="100%" stop-color="#4a90e2" stop-opacity="1"></stop></radialGradient><radialGradient id="lorc-microchip-gradient-5"><stop offset="0%" stop-color="#9013fe" stop-opacity="1"></stop><stop offset="100%" stop-color="#4a90e2" stop-opacity="1"></stop></radialGradient><radialGradient id="lorc-microchip-gradient-7"><stop offset="0%" stop-color="#9013fe" stop-opacity="1"></stop><stop offset="100%" stop-color="#4a90e2" stop-opacity="1"></stop></radialGradient><radialGradient id="lorc-microchip-gradient-9"><stop offset="0%" stop-color="#9013fe" stop-opacity="1"></stop><stop offset="100%" stop-color="#4a90e2" stop-opacity="1"></stop></radialGradient></defs><g class="" transform="translate(0,0)" style=""><path d="M169.5 38.97l-2.406 9-4.313 16.093-34.936-9.344-3.375 12.53-26.75-7.156-4.845 18.03 26.78 7.19-2.874 10.655 34.94 9.343-12.25 45.718-34.94-9.343-3.31 12.282-26.75-7.157-4.845 18.062 26.75 7.156-2.906 10.907 34.936 9.344-12.53 46.69-34.907-9.345L78 240.75l-26.78-7.188-4.845 18.032 26.78 7.187-3.25 12.095 34.907 9.344-12 44.75-34.906-9.345-2.875 10.75-26.78-7.188-4.813 18.032 26.75 7.155-3.343 12.53 34.906 9.345-4.47 16.688-2.405 9.03 9.03 2.407 254.845 68.28 9.03 2.408 2.408-9.032 4.468-16.655 34.813 9.313 3.342-12.5 27.032 7.25 4.844-18.032-27.032-7.25 2.875-10.75-34.81-9.312 12-44.75 34.81 9.312 3.25-12.094 27.033 7.25 4.812-18.03-27.03-7.25 3-11.157-34.814-9.313 12.5-46.656 34.814 9.313L439 263.843l27.03 7.25 4.845-18.063-27.03-7.25 3.28-12.31-34.78-9.314 12.25-45.72 34.78 9.314 2.844-10.625 27.06 7.25 4.845-18.063-27.063-7.25 3.375-12.593-34.78-9.314 4.312-16.062 2.436-9.03-9.03-2.44-254.845-68.25-9.03-2.405zm13.188 22.874L419.53 125.28 334.564 442.19 97.75 378.75l84.938-316.906zM375.28 132.78L305.5 393.22l-175.313-47-4.843 18.06L309.72 413.69l9 2.406 2.436-9.03 72.188-269.44-18.063-4.843z" fill="url(#lorc-microchip-gradient-1)" stroke="#000000" stroke-opacity="1" stroke-width="5"></path></g></svg>