<?xml version="1.0" encoding="UTF-8"?>
<svg xmlns="http://www.w3.org/2000/svg" viewBox="0 0 815.93982 802.80353">
   <defs>
      <filter id="a">
         <feGaussianBlur stdDeviation="34.16335" />
      </filter>
      <filter id="b">
         <feGaussianBlur stdDeviation="1" />
      </filter>
   </defs>
   <path transform="matrix(.53578 0 0 .52194 -863.45 -1014.6)" d="m3052.5 2713c0 379.45-304.2 687.06-679.46 687.06s-679.46-307.61-679.46-687.06 304.2-687.06 679.46-687.06 679.46 307.61 679.46 687.06z" fill="#800080" filter="url(#a)" />
   <path transform="matrix(.53578 0 0 .52194 -863.45 -1014.6)" d="m3052.5 2713c0 379.45-304.2 687.06-679.46 687.06s-679.46-307.61-679.46-687.06 304.2-687.06 679.46-687.06 679.46 307.61 679.46 687.06z" fill="#800080" filter="url(#a)" />
   <g fill="none" stroke="#fc0">
      <g transform="matrix(3.5769 0 0 3.5769 409.78 402.27)" filter="url(#b)">
         <path transform="rotate(2.2968)" d="m5.7151 0c0 55.228-2.5587 100-5.7151 100s-5.7151-44.772-5.7151-100 2.5587-100 5.7151-100 5.7151 44.772 5.7151 100z" />
         <path transform="rotate(11.172)" d="m26.67 0c0 55.228-11.941 100-26.67 100s-26.67-44.772-26.67-100 11.941-100 26.67-100 26.67 44.772 26.67 100z" />
         <path transform="rotate(21.151)" d="m45.807 0c0 55.228-20.509 100-45.807 100s-45.807-44.772-45.807-100 20.509-100 45.807-100 45.807 44.772 45.807 100z" />
         <path transform="rotate(33.418)" d="m61.823 0c0 55.228-27.679 100-61.823 100s-61.823-44.772-61.823-100 27.679-100 61.823-100 61.823 44.772 61.823 100z" />
         <path transform="rotate(49.624)" d="m73.626 0c0 55.228-32.963 100-73.626 100s-73.626-44.772-73.626-100 32.963-100 73.626-100 73.626 44.772 73.626 100z" />
         <path transform="rotate(71.279)" d="m80.411 0c0 55.228-36.001 100-80.411 100s-80.411-44.772-80.411-100 36.001-100 80.411-100 80.411 44.772 80.411 100z" />
         <path transform="matrix(.12102,-.99265,.99265,.12102,0,0)" d="m81.717 0c0 55.228-36.586 100-81.717 100s-81.717-44.772-81.717-100 36.586-100 81.717-100 81.717 44.772 81.717 100z" />
         <path transform="matrix(.5147,-.85737,.85737,.5147,0,0)" d="m77.453 0c0 55.228-34.677 100-77.453 100s-77.453-44.772-77.453-100 34.677-100 77.453-100 77.453 44.772 77.453 100z" />
         <path transform="matrix(.7618,-.64781,.64781,.7618,0,0)" d="m67.912 0c0 55.228-30.405 100-67.912 100s-67.912-44.772-67.912-100 30.405-100 67.912-100 67.912 44.772 67.912 100z" />
         <path transform="matrix(.89493,-.44621,.44621,.89493,0,0)" d="m53.742 0c0 55.228-24.061 100-53.742 100s-53.742-44.772-53.742-100 24.061-100 53.742-100 53.742 44.772 53.742 100z" />
         <path transform="matrix(.96303,-.26941,.26941,.96303,0,0)" d="m35.91 0c0 55.228-16.078 100-35.91 100s-35.91-44.772-35.91-100 16.078-100 35.91-100 35.91 44.772 35.91 100z" />
         <path transform="matrix(.99384,-.11081,.11081,.99384,0,0)" d="m15.631 0c0 55.228-6.9983 100-15.631 100s-15.631-44.772-15.631-100 6.9983-100 15.631-100 15.631 44.772 15.631 100z" />
         <path d="m15.643 80.907c0 4.956-7.0038 8.9737-15.643 8.9737s-15.643-4.0177-15.643-8.9737 7.0038-8.9737 15.643-8.9737 15.643 4.0177 15.643 8.9737z" />
         <path d="m30.902 77.906c0 9.7895-13.835 17.725-30.902 17.725s-30.902-7.936-30.902-17.725 13.835-17.725 30.902-17.725 30.902 7.936 30.902 17.725z" />
         <path d="m45.399 72.987c0 14.382-20.326 26.041-45.399 26.041s-45.399-11.659-45.399-26.041 20.326-26.041 45.399-26.041 45.399 11.659 45.399 26.041z" />
         <path d="m58.779 66.271c0 18.62-26.316 33.715-58.779 33.715s-58.779-15.095-58.779-33.715 26.316-33.715 58.779-33.715 58.779 15.095 58.779 33.715z" />
         <path d="m70.711 57.923c0 22.4-31.658 40.559-70.711 40.559s-70.711-18.159-70.711-40.559 31.658-40.559 70.711-40.559 70.711 18.159 70.711 40.559z" />
         <path d="m80.902 48.149c0 25.628-36.221 46.404-80.902 46.404s-80.902-20.776-80.902-46.404 36.221-46.404 80.902-46.404 80.902 20.776 80.902 46.404z" />
         <path d="m89.101 37.189c0 28.226-39.892 51.107-89.101 51.107s-89.101-22.881-89.101-51.107 39.892-51.107 89.101-51.107 89.101 22.881 89.101 51.107z" />
         <path d="m95.106 25.313c0 30.128-42.58 54.551-95.106 54.551s-95.106-24.423-95.106-54.551 42.58-54.551 95.106-54.551 95.106 24.423 95.106 54.551z" />
         <path d="m98.769 12.814c0 31.288-44.22 56.652-98.769 56.652s-98.769-25.364-98.769-56.652 44.22-56.652 98.769-56.652 98.769 25.364 98.769 56.652z" />
         <path d="m100 0c0 31.678-44.772 57.359-100 57.359s-100-25.68-100-57.359 44.772-57.359 100-57.359 100 25.68 100 57.359z" />
         <path d="m98.769-12.814c0 31.288-44.22 56.652-98.769 56.652s-98.769-25.364-98.769-56.652 44.22-56.652 98.769-56.652 98.769 25.364 98.769 56.652z" />
         <path d="m95.106-25.313c0 30.128-42.58 54.551-95.106 54.551s-95.106-24.423-95.106-54.551 42.58-54.551 95.106-54.551 95.106 24.423 95.106 54.551z" />
         <path d="m89.101-37.189c0 28.226-39.892 51.107-89.101 51.107s-89.101-22.881-89.101-51.107 39.892-51.107 89.101-51.107 89.101 22.881 89.101 51.107z" />
         <path d="m80.902-48.149c0 25.628-36.221 46.404-80.902 46.404s-80.902-20.776-80.902-46.404 36.221-46.404 80.902-46.404 80.902 20.776 80.902 46.404z" />
         <path d="m70.711-57.923c0 22.4-31.658 40.559-70.711 40.559s-70.711-18.159-70.711-40.559 31.658-40.559 70.711-40.559 70.711 18.159 70.711 40.559z" />
         <path d="m58.779-66.271c0 18.62-26.316 33.715-58.779 33.715s-58.779-15.095-58.779-33.715 26.316-33.715 58.779-33.715 58.779 15.095 58.779 33.715z" />
         <path d="m45.399-72.987c0 14.382-20.326 26.041-45.399 26.041s-45.399-11.659-45.399-26.041 20.326-26.041 45.399-26.041 45.399 11.659 45.399 26.041z" />
         <path d="m30.902-77.906c0 9.7895-13.835 17.725-30.902 17.725s-30.902-7.936-30.902-17.725 13.835-17.725 30.902-17.725 30.902 7.936 30.902 17.725z" />
         <path d="m15.643-80.907c0 4.956-7.0038 8.9737-15.643 8.9737s-15.643-4.0177-15.643-8.9737 7.0038-8.9737 15.643-8.9737 15.643 4.0177 15.643 8.9737z" />
         <path d="m100 0c0 55.228-44.772 100-100 100s-100-44.772-100-100 44.772-100 100-100 100 44.772 100 100z" />
      </g>
      <g transform="matrix(3.5769 0 0 3.5769 409.78 402.27)">
         <path transform="rotate(2.2968)" d="m5.7151 0c0 55.228-2.5587 100-5.7151 100s-5.7151-44.772-5.7151-100 2.5587-100 5.7151-100 5.7151 44.772 5.7151 100z" />
         <path transform="rotate(11.172)" d="m26.67 0c0 55.228-11.941 100-26.67 100s-26.67-44.772-26.67-100 11.941-100 26.67-100 26.67 44.772 26.67 100z" />
         <path transform="rotate(21.151)" d="m45.807 0c0 55.228-20.509 100-45.807 100s-45.807-44.772-45.807-100 20.509-100 45.807-100 45.807 44.772 45.807 100z" />
         <path transform="rotate(33.418)" d="m61.823 0c0 55.228-27.679 100-61.823 100s-61.823-44.772-61.823-100 27.679-100 61.823-100 61.823 44.772 61.823 100z" />
         <path transform="rotate(49.624)" d="m73.626 0c0 55.228-32.963 100-73.626 100s-73.626-44.772-73.626-100 32.963-100 73.626-100 73.626 44.772 73.626 100z" />
         <path transform="rotate(71.279)" d="m80.411 0c0 55.228-36.001 100-80.411 100s-80.411-44.772-80.411-100 36.001-100 80.411-100 80.411 44.772 80.411 100z" />
         <path transform="matrix(.12102,-.99265,.99265,.12102,0,0)" d="m81.717 0c0 55.228-36.586 100-81.717 100s-81.717-44.772-81.717-100 36.586-100 81.717-100 81.717 44.772 81.717 100z" />
         <path transform="matrix(.5147,-.85737,.85737,.5147,0,0)" d="m77.453 0c0 55.228-34.677 100-77.453 100s-77.453-44.772-77.453-100 34.677-100 77.453-100 77.453 44.772 77.453 100z" />
         <path transform="matrix(.7618,-.64781,.64781,.7618,0,0)" d="m67.912 0c0 55.228-30.405 100-67.912 100s-67.912-44.772-67.912-100 30.405-100 67.912-100 67.912 44.772 67.912 100z" />
         <path transform="matrix(.89493,-.44621,.44621,.89493,0,0)" d="m53.742 0c0 55.228-24.061 100-53.742 100s-53.742-44.772-53.742-100 24.061-100 53.742-100 53.742 44.772 53.742 100z" />
         <path transform="matrix(.96303,-.26941,.26941,.96303,0,0)" d="m35.91 0c0 55.228-16.078 100-35.91 100s-35.91-44.772-35.91-100 16.078-100 35.91-100 35.91 44.772 35.91 100z" />
         <path transform="matrix(.99384,-.11081,.11081,.99384,0,0)" d="m15.631 0c0 55.228-6.9983 100-15.631 100s-15.631-44.772-15.631-100 6.9983-100 15.631-100 15.631 44.772 15.631 100z" />
         <path d="m15.643 80.907c0 4.956-7.0038 8.9737-15.643 8.9737s-15.643-4.0177-15.643-8.9737 7.0038-8.9737 15.643-8.9737 15.643 4.0177 15.643 8.9737z" />
         <path d="m30.902 77.906c0 9.7895-13.835 17.725-30.902 17.725s-30.902-7.936-30.902-17.725 13.835-17.725 30.902-17.725 30.902 7.936 30.902 17.725z" />
         <path d="m45.399 72.987c0 14.382-20.326 26.041-45.399 26.041s-45.399-11.659-45.399-26.041 20.326-26.041 45.399-26.041 45.399 11.659 45.399 26.041z" />
         <path d="m58.779 66.271c0 18.62-26.316 33.715-58.779 33.715s-58.779-15.095-58.779-33.715 26.316-33.715 58.779-33.715 58.779 15.095 58.779 33.715z" />
         <path d="m70.711 57.923c0 22.4-31.658 40.559-70.711 40.559s-70.711-18.159-70.711-40.559 31.658-40.559 70.711-40.559 70.711 18.159 70.711 40.559z" />
         <path d="m80.902 48.149c0 25.628-36.221 46.404-80.902 46.404s-80.902-20.776-80.902-46.404 36.221-46.404 80.902-46.404 80.902 20.776 80.902 46.404z" />
         <path d="m89.101 37.189c0 28.226-39.892 51.107-89.101 51.107s-89.101-22.881-89.101-51.107 39.892-51.107 89.101-51.107 89.101 22.881 89.101 51.107z" />
         <path d="m95.106 25.313c0 30.128-42.58 54.551-95.106 54.551s-95.106-24.423-95.106-54.551 42.58-54.551 95.106-54.551 95.106 24.423 95.106 54.551z" />
         <path d="m98.769 12.814c0 31.288-44.22 56.652-98.769 56.652s-98.769-25.364-98.769-56.652 44.22-56.652 98.769-56.652 98.769 25.364 98.769 56.652z" />
         <path d="m100 0c0 31.678-44.772 57.359-100 57.359s-100-25.68-100-57.359 44.772-57.359 100-57.359 100 25.68 100 57.359z" />
         <path d="m98.769-12.814c0 31.288-44.22 56.652-98.769 56.652s-98.769-25.364-98.769-56.652 44.22-56.652 98.769-56.652 98.769 25.364 98.769 56.652z" />
         <path d="m95.106-25.313c0 30.128-42.58 54.551-95.106 54.551s-95.106-24.423-95.106-54.551 42.58-54.551 95.106-54.551 95.106 24.423 95.106 54.551z" />
         <path d="m89.101-37.189c0 28.226-39.892 51.107-89.101 51.107s-89.101-22.881-89.101-51.107 39.892-51.107 89.101-51.107 89.101 22.881 89.101 51.107z" />
         <path d="m80.902-48.149c0 25.628-36.221 46.404-80.902 46.404s-80.902-20.776-80.902-46.404 36.221-46.404 80.902-46.404 80.902 20.776 80.902 46.404z" />
         <path d="m70.711-57.923c0 22.4-31.658 40.559-70.711 40.559s-70.711-18.159-70.711-40.559 31.658-40.559 70.711-40.559 70.711 18.159 70.711 40.559z" />
         <path d="m58.779-66.271c0 18.62-26.316 33.715-58.779 33.715s-58.779-15.095-58.779-33.715 26.316-33.715 58.779-33.715 58.779 15.095 58.779 33.715z" />
         <path d="m45.399-72.987c0 14.382-20.326 26.041-45.399 26.041s-45.399-11.659-45.399-26.041 20.326-26.041 45.399-26.041 45.399 11.659 45.399 26.041z" />
         <path d="m30.902-77.906c0 9.7895-13.835 17.725-30.902 17.725s-30.902-7.936-30.902-17.725 13.835-17.725 30.902-17.725 30.902 7.936 30.902 17.725z" />
         <path d="m15.643-80.907c0 4.956-7.0038 8.9737-15.643 8.9737s-15.643-4.0177-15.643-8.9737 7.0038-8.9737 15.643-8.9737 15.643 4.0177 15.643 8.9737z" />
         <path d="m100 0c0 55.228-44.772 100-100 100s-100-44.772-100-100 44.772-100 100-100 100 44.772 100 100z" />
      </g>
   </g>
</svg>