<svg xmlns="http://www.w3.org/2000/svg" viewBox="0 0 512 512" style="height: 512px; width: 512px;"><defs><filter id="shadow-12" height="300%" width="300%" x="-100%" y="-100%"><feFlood flood-color="rgba(255, 255, 255, 1)" result="flood"></feFlood><feComposite in="flood" in2="SourceGraphic" operator="atop" result="composite"></feComposite><feGaussianBlur in="composite" stdDeviation="15" result="blur"></feGaussianBlur><feOffset dx="0" dy="0" result="offset"></feOffset><feComposite in="SourceGraphic" in2="offset" operator="over"></feComposite></filter><filter id="shadow-13" height="300%" width="300%" x="-100%" y="-100%"><feFlood flood-color="rgba(255, 255, 255, 1)" result="flood"></feFlood><feComposite in="flood" in2="SourceGraphic" operator="atop" result="composite"></feComposite><feGaussianBlur in="composite" stdDeviation="15" result="blur"></feGaussianBlur><feOffset dx="0" dy="0" result="offset"></feOffset><feComposite in="SourceGraphic" in2="offset" operator="over"></feComposite></filter><filter id="shadow-14" height="300%" width="300%" x="-100%" y="-100%"><feFlood flood-color="rgba(255, 255, 255, 1)" result="flood"></feFlood><feComposite in="flood" in2="SourceGraphic" operator="atop" result="composite"></feComposite><feGaussianBlur in="composite" stdDeviation="15" result="blur"></feGaussianBlur><feOffset dx="0" dy="0" result="offset"></feOffset><feComposite in="SourceGraphic" in2="offset" operator="over"></feComposite></filter><radialGradient id="skoll-molecule-gradient-0"><stop offset="0%" stop-color="#fc88fc" stop-opacity="1"></stop><stop offset="100%" stop-color="#59197e" stop-opacity="1"></stop></radialGradient><radialGradient id="skoll-molecule-gradient-1"><stop offset="0%" stop-color="#c9c9c9" stop-opacity="1"></stop><stop offset="100%" stop-color="#f8e71c" stop-opacity="1"></stop></radialGradient><radialGradient id="skoll-molecule-gradient-2"><stop offset="0%" stop-color="#ffe0af" stop-opacity="1"></stop><stop offset="100%" stop-color="#9013fe" stop-opacity="1"></stop></radialGradient><radialGradient id="skoll-molecule-gradient-3"><stop offset="0%" stop-color="#ffe0af" stop-opacity="1"></stop><stop offset="100%" stop-color="#9013fe" stop-opacity="1"></stop></radialGradient><radialGradient id="skoll-molecule-gradient-4"><stop offset="0%" stop-color="#ffe0af" stop-opacity="1"></stop><stop offset="100%" stop-color="#9013fe" stop-opacity="1"></stop></radialGradient><radialGradient id="skoll-molecule-gradient-5"><stop offset="0%" stop-color="#ffe0af" stop-opacity="1"></stop><stop offset="100%" stop-color="#9013fe" stop-opacity="1"></stop></radialGradient><radialGradient id="skoll-molecule-gradient-7"><stop offset="0%" stop-color="#9013fe" stop-opacity="1"></stop><stop offset="100%" stop-color="#4a90e2" stop-opacity="1"></stop></radialGradient><radialGradient id="skoll-molecule-gradient-9"><stop offset="0%" stop-color="#9013fe" stop-opacity="1"></stop><stop offset="100%" stop-color="#4a90e2" stop-opacity="1"></stop></radialGradient></defs><g class="" transform="translate(0,0)" style=""><g><path d="M132.172 157.504C125.423 164.162 119.299 171.426 113.876 179.202C77.385 112.056 127.265 30.587 203.661 32.557C254.993 33.881 296.845 74.133 300.167 125.375C281.764 117.582 262.017 113.459 242.033 113.237L240.051 113.237C199.653 113.148 160.864 129.065 132.172 157.504Z" class="" fill="url(#skoll-molecule-gradient-2)" stroke="#000000" stroke-opacity="1" stroke-width="5"></path><path d="M238.142 420.525C171.222 419.635 112.552 375.593 93.014 311.583C40.202 366.832 67.003 458.534 141.257 476.646C188.216 488.1 236.6 464.073 255.854 419.737C250.631 420.268 245.385 420.535 240.135 420.537L238.154 420.537Z" class="" fill="url(#skoll-molecule-gradient-3)" stroke="#000000" stroke-opacity="1" stroke-width="5"></path><path d="M363.243 189.263L362.145 189.263C296.988 189.521 256.544 260.217 289.346 316.515C304.261 342.113 331.473 358.05 361.095 358.535L362.193 358.535C427.35 358.277 467.794 287.581 434.992 231.283C420.077 205.685 392.865 189.748 363.243 189.263Z" class="selected" fill="url(#skoll-molecule-gradient-4)" stroke="#000000" stroke-opacity="1" stroke-width="5"></path><path d="M258.443 272.58C259.062 225.571 291.188 184.843 336.76 173.294C311.858 147.501 277.668 132.751 241.818 132.334L240.075 132.334C136.488 132.948 72.411 245.469 124.736 334.871C148.432 375.357 191.502 400.581 238.405 401.441L240.147 401.441C271.266 401.479 301.428 390.685 325.457 370.911C284.706 355.434 257.946 316.169 258.443 272.581Z" class="" fill="url(#skoll-molecule-gradient-5)" stroke="#000000" stroke-opacity="1" stroke-width="5"></path></g></g></svg>