<?xml version="1.0" encoding="utf-8"?>
<!-- Generator: Adobe Illustrator 26.0.2, SVG Export Plug-In . SVG Version: 6.00 Build 0)  -->
<svg version="1.1" id="credits" xmlns="http://www.w3.org/2000/svg" xmlns:xlink="http://www.w3.org/1999/xlink" x="0px" y="0px"
	 viewBox="0 0 512 512" style="enable-background:new 0 0 512 512;" xml:space="preserve">
<style type="text/css">
	
		.st0{fill:url(#coin-side_00000182512284665186593930000010636678430224917148_);stroke:#000000;stroke-width:5;stroke-miterlimit:10;}
	
		.st1{fill:url(#coin-front_00000079485633160221787110000001025270775205651377_);stroke:#000000;stroke-width:5;stroke-miterlimit:10;}
	.st2{fill:url(#symbol_00000042017611009702929600000001249391758072933256_);stroke:#000000;stroke-width:3;stroke-miterlimit:10;}
</style>
<linearGradient id="coin-side_00000158730121393986231530000003201164054966206614_" gradientUnits="userSpaceOnUse" x1="252.8585" y1="89.6516" x2="272.1601" y2="433.9907">
	<stop  offset="0.1412" style="stop-color:#E9AD38"/>
	<stop  offset="0.1682" style="stop-color:#D59D31"/>
	<stop  offset="0.2293" style="stop-color:#AF7C24"/>
	<stop  offset="0.295" style="stop-color:#8E6019"/>
	<stop  offset="0.365" style="stop-color:#734910"/>
	<stop  offset="0.4411" style="stop-color:#5E3809"/>
	<stop  offset="0.5261" style="stop-color:#4F2B04"/>
	<stop  offset="0.6273" style="stop-color:#472401"/>
	<stop  offset="0.7866" style="stop-color:#442200"/>
	<stop  offset="0.9711" style="stop-color:#633D13"/>
</linearGradient>
<path id="coin-side" style="fill:url(#coin-side_00000158730121393986231530000003201164054966206614_);stroke:#000000;stroke-width:5;stroke-miterlimit:10;" d="
	M133.2,406.6c-19.1-20-71.3-74.1-70-156.7c0.1-4.2,3.1-103,84-161.6c8.2-6,38.4-26.8,83.5-34.6c14.8-2.6,87.8-15.2,151.7,31.8
	c74,54.4,77.8,146.2,78.4,161.9c0.1,3.1,0.2,5.5,0.2,6.2c0.8,107.3-83.7,168.8-83.7,168.8c-58,42-140.4,52.5-200.5,19.7
	C157,431.5,144.9,418.9,133.2,406.6z"/>
<linearGradient id="coin-front_00000114069144777942240430000005490334223382167693_" gradientUnits="userSpaceOnUse" x1="153.3028" y1="135.083" x2="311.0785" y2="354.079">
	<stop  offset="0.1412" style="stop-color:#E9AD38"/>
	<stop  offset="0.1959" style="stop-color:#E9B43C"/>
	<stop  offset="0.3673" style="stop-color:#EAC446"/>
	<stop  offset="0.4983" style="stop-color:#EACA4A"/>
	<stop  offset="0.6671" style="stop-color:#D1A63A"/>
	<stop  offset="0.8657" style="stop-color:#B7812A"/>
	<stop  offset="0.9711" style="stop-color:#AD7324"/>
</linearGradient>
<path id="coin-front" style="fill:url(#coin-front_00000114069144777942240430000005490334223382167693_);stroke:#000000;stroke-width:5;stroke-miterlimit:10;" d="
	M240.6,459.1L240.6,459.1c-24-1.4-85-8.2-131.9-54.6c-76.9-76.1-76.9-220.2,0-296.3c46.9-46.4,107.9-53.3,131.9-54.6h0
	c24,1.4,85,8.2,131.9,54.6c76.9,76.1,76.9,220.2,0,296.3C325.6,450.8,264.6,457.7,240.6,459.1z"/>
<linearGradient id="symbol_00000076593419947618219920000012037502985870366853_" gradientUnits="userSpaceOnUse" x1="230.8848" y1="155.4897" x2="316.8835" y2="349.0558">
	<stop  offset="0.1089" style="stop-color:#492B00"/>
	<stop  offset="0.2077" style="stop-color:#683C00"/>
	<stop  offset="0.317" style="stop-color:#834B00"/>
	<stop  offset="0.414" style="stop-color:#935400"/>
	<stop  offset="0.488" style="stop-color:#995700"/>
	<stop  offset="0.6016" style="stop-color:#874C00"/>
	<stop  offset="0.8619" style="stop-color:#623500"/>
	<stop  offset="1" style="stop-color:#542C00"/>
</linearGradient>
<path id="symbol" style="fill:url(#symbol_00000076593419947618219920000012037502985870366853_);stroke:#000000;stroke-width:3;stroke-miterlimit:10;" d="
	M217.9,80.5h-22.2v63.3h-20l-0.7,91.4h20.7v75.2l22.9,0.1l-0.7-75.3h26.6l0.4,75.4c2.7,0.1,5.7,0.1,9-0.2c4.1-0.3,7.7-0.9,10.9-1.6
	c-0.6-13.3-0.4-24.1,0-31.7c0.3-7.3,0.9-13.3,1.1-23.9c0.2-7.4,0.1-13.6,0-18c10.6,0.7,21.2,1.5,31.8,2.2l-94.8,217.1h69.5
	l114.1-309.8L266,143.8V80.5h-18.5v63.3h-29.2L217.9,80.5z"/>
</svg>
