<svg xmlns="http://www.w3.org/2000/svg" viewBox="0 0 512 512" style="height: 512px; width: 512px;"><defs><filter id="shadow-2" height="300%" width="300%" x="-100%" y="-100%"><feFlood flood-color="rgba(255, 255, 255, 1)" result="flood"></feFlood><feComposite in="flood" in2="SourceGraphic" operator="atop" result="composite"></feComposite><feGaussianBlur in="composite" stdDeviation="15" result="blur"></feGaussianBlur><feOffset dx="0" dy="0" result="offset"></feOffset><feComposite in="SourceGraphic" in2="offset" operator="over"></feComposite></filter><filter id="shadow-12" height="300%" width="300%" x="-100%" y="-100%"><feFlood flood-color="rgba(255, 255, 255, 1)" result="flood"></feFlood><feComposite in="flood" in2="SourceGraphic" operator="atop" result="composite"></feComposite><feGaussianBlur in="composite" stdDeviation="15" result="blur"></feGaussianBlur><feOffset dx="0" dy="0" result="offset"></feOffset><feComposite in="SourceGraphic" in2="offset" operator="over"></feComposite></filter><filter id="shadow-13" height="300%" width="300%" x="-100%" y="-100%"><feFlood flood-color="rgba(255, 255, 255, 1)" result="flood"></feFlood><feComposite in="flood" in2="SourceGraphic" operator="atop" result="composite"></feComposite><feGaussianBlur in="composite" stdDeviation="15" result="blur"></feGaussianBlur><feOffset dx="0" dy="0" result="offset"></feOffset><feComposite in="SourceGraphic" in2="offset" operator="over"></feComposite></filter><filter id="shadow-14" height="300%" width="300%" x="-100%" y="-100%"><feFlood flood-color="rgba(255, 255, 255, 1)" result="flood"></feFlood><feComposite in="flood" in2="SourceGraphic" operator="atop" result="composite"></feComposite><feGaussianBlur in="composite" stdDeviation="15" result="blur"></feGaussianBlur><feOffset dx="0" dy="0" result="offset"></feOffset><feComposite in="SourceGraphic" in2="offset" operator="over"></feComposite></filter><radialGradient id="lorc-gold-shell-gradient-0"><stop offset="0%" stop-color="#fc88fc" stop-opacity="1"></stop><stop offset="100%" stop-color="#59197e" stop-opacity="1"></stop></radialGradient><radialGradient id="lorc-gold-shell-gradient-1"><stop offset="0%" stop-color="#50e3c2" stop-opacity="1"></stop><stop offset="100%" stop-color="#7ed321" stop-opacity="1"></stop></radialGradient><radialGradient id="lorc-gold-shell-gradient-2"><stop offset="0%" stop-color="#7ed321" stop-opacity="1"></stop><stop offset="100%" stop-color="#000000" stop-opacity="1"></stop></radialGradient><linearGradient id="lorc-gold-shell-gradient-3" x1="0" x2="0" y1="0" y2="1"><stop offset="0%" stop-color="#7ed321" stop-opacity="1"></stop><stop offset="100%" stop-color="#2f5602" stop-opacity="1"></stop></linearGradient><radialGradient id="lorc-gold-shell-gradient-4"><stop offset="0%" stop-color="#7ed321" stop-opacity="1"></stop><stop offset="100%" stop-color="#284703" stop-opacity="1"></stop></radialGradient><linearGradient id="lorc-gold-shell-gradient-5"><stop offset="0%" stop-color="#254402" stop-opacity="1"></stop><stop offset="100%" stop-color="#7ed321" stop-opacity="1"></stop></linearGradient><radialGradient id="lorc-gold-shell-gradient-7"><stop offset="0%" stop-color="#9013fe" stop-opacity="1"></stop><stop offset="100%" stop-color="#4a90e2" stop-opacity="1"></stop></radialGradient><radialGradient id="lorc-gold-shell-gradient-9"><stop offset="0%" stop-color="#9013fe" stop-opacity="1"></stop><stop offset="100%" stop-color="#4a90e2" stop-opacity="1"></stop></radialGradient></defs><g class="" transform="translate(0,0)" style=""><g><path d="M255.902 21.777C198.246 21.777 145.412 42.603 104.492 77.117L104.472 77.135C89.573 88.44 76.664 102.23 66.358 117.883C37.733 156.831 20.803 204.893 20.803 256.877C20.803 316.907 43.376 371.712 80.473 413.283L80.045 413.711C82.515 416.183 85.035 418.577 87.59 420.911C130.305 464.731 189.948 491.976 255.9 491.976C385.63 491.976 491 386.609 491 256.878C491 127.148 385.63 21.778 255.9 21.778Z" class="" fill="url(#lorc-gold-shell-gradient-2)" stroke="#000000" stroke-opacity="1" stroke-width="5" filter="url(#shadow-2)"></path><path d="M274.459 41.262C385.382 50.659 472.315 143.497 472.315 256.877C472.315 350.797 412.659 430.623 329.13 460.602C350.913 450.542 371.255 436.606 389.12 418.742C472.78 335.082 470.597 197.189 385.025 110.625C357.655 76.165 318.905 51.155 274.459 41.262Z" class="selected" fill="url(#lorc-gold-shell-gradient-3)" stroke="#000000" stroke-opacity="1" stroke-width="5"></path><path d="M203.517 62.506C253.935 62.506 298.287 88.054 324.362 126.932C300.794 104.122 269.094 90.515 237.274 89.344C235.534 89.28 233.792 89.254 232.052 89.264C205.944 89.427 180.057 98.081 158.829 117.008C121.819 150.008 111.429 210.678 147.573 249.705C172.543 276.669 217.745 284.359 245.95 256.48C255.313 247.227 261.048 234.735 262.057 221.732C263.067 208.73 258.987 194.865 248.377 184.807L248.375 184.805C241.658 178.44 232.88 174.612 223.65 174.082C214.42 173.552 204.328 176.796 197.463 184.879C193.336 189.737 191.031 195.781 190.943 202.261C190.856 208.741 193.558 216.108 199.75 220.731L199.76 220.739L199.768 220.745C203.298 223.368 207.314 224.703 211.898 224.558C216.483 224.411 222.223 221.944 225.191 216.868L225.191 216.865C226.811 214.095 227.401 211.505 227.019 208.16C226.636 204.816 224.033 199.943 219.459 198.172C216.982 197.212 215.589 197.119 212.995 197.705C212.378 197.845 211.665 198.065 210.917 198.405C211.182 197.911 211.404 197.345 211.714 196.978C214.514 193.681 218.064 192.483 222.579 192.742C227.094 193.002 232.162 195.192 235.519 198.372C241.751 204.282 244.066 211.952 243.419 220.285C242.772 228.619 238.802 237.263 232.812 243.185C213.112 262.655 179.846 257.037 161.292 237.002C133.035 206.492 141.462 157.539 171.272 130.959C214.354 92.549 282.037 105.196 318.637 148.087C335.267 167.573 345.56 192.275 348.422 217.839L348.59 217.819C343.514 293.606 280.612 353.331 203.52 353.331C123.1 353.331 58.106 288.341 58.106 207.919C58.106 178.419 66.859 151.002 81.902 128.101C91.786 114.761 103.169 102.604 115.802 91.871C140.172 73.435 170.547 62.505 203.52 62.505Z" class="" fill="url(#lorc-gold-shell-gradient-4)" stroke="#000000" stroke-opacity="1" stroke-width="5"></path><path d="M427.257 225.414C441.212 289.117 424.187 357.244 375.903 405.527C301.133 480.297 178.778 480.123 98.958 405.965C65.02 370.248 43.183 322.932 39.928 270.533C57.754 360.206 136.866 427.8 231.775 427.8C339.809 427.8 427.387 340.224 427.387 232.19C427.387 229.92 427.334 227.664 427.257 225.414Z" class="" fill="url(#lorc-gold-shell-gradient-5)" stroke="#000000" stroke-opacity="1" stroke-width="5"></path></g></g></svg>